# xmcd CD Database Entry
#
# Track frame offsets:
# 150
# 10779
# 25661
# 37976
# 45751
#
# Disc length: 798 seconds
#
# Revision: 2
# Processed by: cddbd v1.4PL0 Copyright (c) Steve Scherf et al.
# Submitted via: tcd 2.0b
#
DISCID=25031c05
DTITLE=Szturmowka - Radosny niezbêdnik ideologiczny
DYEAR=1900
DGENRE=
TTITLE0=Naprzeciw blaskom jutrzni
TTITLE1=Do roboty
TTITLE2=Czerwony autobus
TTITLE3=Budujemy nowy dom
TTITLE4=Warszawski dzien
EXTD=
EXTT0=
EXTT1=
EXTT2=
EXTT3=
EXTT4=
PLAYORDER=
